<svg xmlns="http://www.w3.org/2000/svg" width="1024" height="1024" viewBox="0 0 1024 1024">
  <defs>
    <linearGradient id="bg" x1="0" y1="0" x2="1" y2="1">
      <stop offset="0%" stop-color="#0f1724"/>
      <stop offset="100%" stop-color="#1f2d46"/>
    </linearGradient>
    <linearGradient id="metal" x1="0" y1="0" x2="1" y2="1">
      <stop offset="0%" stop-color="#d5deec"/>
      <stop offset="100%" stop-color="#8ea1c3"/>
    </linearGradient>
    <linearGradient id="handle" x1="0" y1="0" x2="0" y2="1">
      <stop offset="0%" stop-color="#d6893b"/>
      <stop offset="100%" stop-color="#9f5e25"/>
    </linearGradient>
    <filter id="softShadow" x="-20%" y="-20%" width="140%" height="140%">
      <feDropShadow dx="0" dy="16" stdDeviation="16" flood-color="#000000" flood-opacity="0.35"/>
    </filter>
  </defs>

  <rect x="40" y="40" width="944" height="944" rx="220" fill="url(#bg)"/>

  <g opacity="0.2" stroke="#4f81c7" stroke-width="8" fill="none">
    <path d="M240 300 L290 272 L340 300 L340 356 L290 384 L240 356 Z"/>
    <path d="M332 356 L382 328 L432 356 L432 412 L382 440 L332 412 Z"/>
    <path d="M240 412 L290 384 L340 412 L340 468 L290 496 L240 468 Z"/>
    <path d="M332 468 L382 440 L432 468 L432 524 L382 552 L332 524 Z"/>
  </g>

  <g transform="translate(126 124)" filter="url(#softShadow)">
    <rect x="452" y="116" width="140" height="86" rx="18" fill="url(#metal)" stroke="#dbe6f7" stroke-width="6"/>
    <rect x="388" y="138" width="98" height="42" rx="12" fill="#aab9d5"/>
    <rect x="476" y="200" width="36" height="414" rx="18" fill="url(#handle)"/>
    <rect x="506" y="364" width="130" height="28" rx="12" transform="rotate(-45 506 364)" fill="url(#handle)"/>
    <circle cx="628" cy="246" r="78" fill="none" stroke="#8ec3ff" stroke-width="20"/>
    <rect x="676" y="292" width="116" height="24" rx="12" transform="rotate(45 676 292)" fill="#8ec3ff"/>
  </g>

  <path d="M152 760 C312 674 448 690 600 784" stroke="#74aef5" stroke-width="18" fill="none" opacity="0.35"/>
</svg>
